<svg width="161" height="29" viewBox="0 0 161 29" fill="none" xmlns="http://www.w3.org/2000/svg">
<path d="M13.9672 0L16.9417 9.14801H26.5671L18.78 14.8018L21.7544 23.9498L13.9672 18.296L6.18006 23.9498L9.15449 14.8018L1.36732 9.14801H10.9928L13.9672 0Z" fill="white"/>
<path d="M46.772 2.52148L49.7465 11.6695H59.3719L51.5848 17.3233L54.5592 26.4713L46.772 20.8175L38.9849 26.4713L41.9593 17.3233L34.1721 11.6695H43.7976L46.772 2.52148Z" fill="white"/>
<path d="M80.8402 2.52148L83.8146 11.6695H93.4401L85.6529 17.3233L88.6273 26.4713L80.8402 20.8175L73.053 26.4713L76.0274 17.3233L68.2402 11.6695H77.8657L80.8402 2.52148Z" fill="white"/>
<path d="M113.645 2.52148L116.619 11.6695H126.245L118.458 17.3233L121.432 26.4713L113.645 20.8175L105.858 26.4713L108.832 17.3233L101.045 11.6695H110.671L113.645 2.52148Z" fill="white"/>
<path d="M147.712 2.52148L150.687 11.6695H160.312L152.525 17.3233L155.499 26.4713L147.712 20.8175L139.925 26.4713L142.899 17.3233L135.112 11.6695H144.738L147.712 2.52148Z" fill="white"/>
</svg>
